<svg xmlns="http://www.w3.org/2000/svg" xmlns:xlink="http://www.w3.org/1999/xlink" width="693" zoomAndPan="magnify" viewBox="0 0 519.75 447.749989" height="597" preserveAspectRatio="xMidYMid meet" version="1.2"><defs><clipPath id="c4e7930604"><path d="M 76 402 L 440 402 L 440 415.652344 L 76 415.652344 Z M 76 402 "/></clipPath></defs><g id="f0ddd2bff8"><path style=" stroke:none;fill-rule:nonzero;fill:#e7e8ff;fill-opacity:1;" d="M 362.777344 404.675781 L 159.734375 404.675781 C 137.625 404.675781 116.328125 396.34375 100.089844 381.34375 L 78.128906 361.054688 C 47.789062 333.027344 52.027344 283.683594 86.21875 260.507812 C 109.230469 244.910156 119.527344 215.746094 111.078125 189.265625 C 95.898438 141.703125 139.753906 96.234375 187.789062 109.886719 C 201.089844 113.664062 215.269531 112.9375 228.113281 107.8125 L 291.078125 82.695312 C 350.898438 58.832031 414.890625 106.339844 409.332031 170.480469 L 408.996094 174.375 C 406.796875 199.746094 416.988281 224.621094 436.359375 241.164062 C 463.957031 264.734375 471.914062 304.078125 455.640625 336.515625 L 447.75 352.25 C 431.625 384.386719 398.738281 404.675781 362.777344 404.675781 Z M 362.777344 404.675781 "/><path style=" stroke:none;fill-rule:evenodd;fill:#ffffff;fill-opacity:1;" d="M 239.195312 300.796875 C 239.699219 299.980469 240.769531 299.710938 241.59375 300.195312 L 246.464844 303.082031 C 247.285156 303.570312 247.542969 304.625 247.042969 305.445312 C 246.628906 306.117188 246.726562 306.964844 247.226562 307.5625 C 248.621094 309.242188 249.667969 311.148438 250.332031 313.179688 C 250.574219 313.917969 251.246094 314.457031 252.035156 314.464844 C 253 314.476562 253.761719 315.261719 253.734375 316.214844 L 253.589844 321.859375 C 253.566406 322.8125 252.765625 323.574219 251.804688 323.5625 C 251.015625 323.550781 250.320312 324.070312 250.039062 324.800781 C 249.65625 325.796875 249.175781 326.773438 248.597656 327.722656 C 248.015625 328.667969 247.359375 329.539062 246.644531 330.339844 C 246.117188 330.925781 245.972656 331.769531 246.351562 332.449219 C 246.8125 333.28125 246.5 334.332031 245.652344 334.796875 L 240.640625 337.558594 C 239.792969 338.023438 238.734375 337.730469 238.273438 336.898438 C 237.894531 336.214844 237.101562 335.882812 236.320312 336.019531 C 234.183594 336.386719 231.976562 336.371094 229.816406 335.941406 C 229.046875 335.789062 228.234375 336.097656 227.824219 336.769531 C 227.324219 337.585938 226.25 337.855469 225.429688 337.371094 L 220.558594 334.484375 C 219.734375 334 219.476562 332.941406 219.980469 332.121094 C 220.390625 331.449219 220.292969 330.601562 219.792969 330.003906 C 218.398438 328.328125 217.355469 326.417969 216.6875 324.386719 C 216.445312 323.648438 215.773438 323.113281 214.988281 323.101562 C 214.023438 323.089844 213.261719 322.308594 213.285156 321.351562 L 213.429688 315.710938 C 213.453125 314.757812 214.253906 313.992188 215.214844 314.007812 C 216.003906 314.015625 216.699219 313.496094 216.980469 312.765625 C 217.363281 311.769531 217.84375 310.792969 218.425781 309.847656 C 219.003906 308.902344 219.660156 308.027344 220.378906 307.226562 C 220.90625 306.644531 221.046875 305.796875 220.671875 305.117188 C 220.210938 304.285156 220.523438 303.234375 221.367188 302.769531 L 226.378906 300.007812 C 227.226562 299.542969 228.285156 299.839844 228.746094 300.671875 C 229.125 301.351562 229.921875 301.683594 230.699219 301.546875 C 232.835938 301.179688 235.042969 301.195312 237.203125 301.625 C 237.976562 301.777344 238.785156 301.46875 239.195312 300.796875 Z M 242.042969 323.835938 C 239.160156 328.535156 233.003906 330.078125 228.292969 327.289062 C 223.582031 324.496094 222.097656 318.425781 224.980469 313.730469 C 227.859375 309.03125 234.015625 307.488281 238.726562 310.277344 C 243.441406 313.070312 244.921875 319.140625 242.042969 323.835938 Z M 242.042969 323.835938 "/><path style=" stroke:none;fill-rule:evenodd;fill:#ffffff;fill-opacity:1;" d="M 199.339844 324.785156 C 200.191406 323.367188 202.007812 322.898438 203.398438 323.742188 L 211.648438 328.75 C 213.042969 329.59375 213.480469 331.425781 212.628906 332.847656 C 211.933594 334.011719 212.097656 335.484375 212.941406 336.519531 C 215.304688 339.429688 217.074219 342.742188 218.203125 346.261719 C 218.617188 347.546875 219.75 348.476562 221.085938 348.492188 C 222.71875 348.515625 224.011719 349.871094 223.96875 351.527344 L 223.722656 361.320312 C 223.683594 362.972656 222.328125 364.292969 220.695312 364.273438 C 219.363281 364.253906 218.183594 365.152344 217.710938 366.421875 C 217.058594 368.152344 216.246094 369.847656 215.265625 371.488281 C 214.28125 373.128906 213.171875 374.644531 211.953125 376.027344 C 211.0625 377.046875 210.820312 378.511719 211.460938 379.691406 C 212.238281 381.132812 211.710938 382.957031 210.277344 383.765625 L 201.789062 388.554688 C 200.351562 389.363281 198.558594 388.851562 197.777344 387.40625 C 197.136719 386.226562 195.792969 385.648438 194.472656 385.882812 C 190.851562 386.523438 187.113281 386.492188 183.453125 385.75 C 182.148438 385.484375 180.773438 386.023438 180.078125 387.183594 C 179.226562 388.605469 177.410156 389.070312 176.019531 388.226562 L 167.769531 383.222656 C 166.375 382.375 165.9375 380.542969 166.789062 379.121094 C 167.484375 377.957031 167.320312 376.484375 166.476562 375.449219 C 164.113281 372.539062 162.34375 369.226562 161.214844 365.707031 C 160.800781 364.421875 159.667969 363.492188 158.332031 363.476562 C 156.699219 363.457031 155.410156 362.097656 155.449219 360.441406 L 155.695312 350.652344 C 155.734375 349 157.089844 347.675781 158.722656 347.695312 C 160.054688 347.714844 161.234375 346.816406 161.710938 345.546875 C 162.359375 343.816406 163.171875 342.121094 164.15625 340.480469 C 165.136719 338.839844 166.246094 337.324219 167.464844 335.941406 C 168.359375 334.925781 168.597656 333.457031 167.957031 332.277344 C 167.179688 330.835938 167.707031 329.011719 169.140625 328.203125 L 177.632812 323.414062 C 179.066406 322.605469 180.863281 323.121094 181.640625 324.5625 C 182.28125 325.746094 183.628906 326.320312 184.949219 326.085938 C 188.570312 325.449219 192.304688 325.476562 195.964844 326.222656 C 197.273438 326.488281 198.644531 325.949219 199.339844 324.785156 Z M 204.160156 364.753906 C 199.28125 372.902344 188.851562 375.582031 180.871094 370.738281 C 172.890625 365.894531 170.378906 355.367188 175.257812 347.21875 C 180.140625 339.070312 190.566406 336.390625 198.546875 341.234375 C 206.527344 346.074219 209.042969 356.605469 204.160156 364.753906 Z M 204.160156 364.753906 "/><path style=" stroke:none;fill-rule:nonzero;fill:#ffffff;fill-opacity:1;" d="M 138.789062 123.117188 C 138.789062 119.085938 142.058594 115.816406 146.09375 115.816406 L 389.113281 115.816406 C 393.148438 115.816406 396.417969 119.085938 396.417969 123.117188 L 396.417969 296.871094 C 396.417969 300.90625 393.148438 304.171875 389.113281 304.171875 L 146.09375 304.171875 C 142.058594 304.171875 138.789062 300.90625 138.789062 296.871094 Z M 138.789062 123.117188 "/><path style=" stroke:none;fill-rule:evenodd;fill:#032068;fill-opacity:1;" d="M 137.695312 123.117188 C 137.695312 118.480469 141.457031 114.722656 146.097656 114.722656 L 389.113281 114.722656 C 393.753906 114.722656 397.515625 118.480469 397.515625 123.117188 L 397.515625 296.871094 C 397.515625 301.507812 393.753906 305.265625 389.113281 305.265625 L 146.097656 305.265625 C 141.457031 305.265625 137.695312 301.507812 137.695312 296.871094 Z M 146.097656 116.910156 C 142.664062 116.910156 139.886719 119.691406 139.886719 123.117188 L 139.886719 296.871094 C 139.886719 300.300781 142.664062 303.078125 146.097656 303.078125 L 389.113281 303.078125 C 392.542969 303.078125 395.324219 300.300781 395.324219 296.871094 L 395.324219 123.117188 C 395.324219 119.691406 392.542969 116.910156 389.113281 116.910156 Z M 146.097656 116.910156 "/><path style=" stroke:none;fill-rule:nonzero;fill:#032068;fill-opacity:1;" d="M 138.789062 123.117188 C 138.789062 119.085938 142.058594 115.816406 146.09375 115.816406 L 389.113281 115.816406 C 393.148438 115.816406 396.417969 119.085938 396.417969 123.117188 L 396.417969 136.445312 L 138.789062 136.445312 Z M 138.789062 123.117188 "/><path style=" stroke:none;fill-rule:nonzero;fill:#ffffff;fill-opacity:1;" d="M 157.734375 126.277344 C 157.734375 128.753906 155.726562 130.761719 153.25 130.761719 C 150.769531 130.761719 148.761719 128.753906 148.761719 126.277344 C 148.761719 123.800781 150.769531 121.792969 153.25 121.792969 C 155.726562 121.792969 157.734375 123.800781 157.734375 126.277344 Z M 157.734375 126.277344 "/><path style=" stroke:none;fill-rule:nonzero;fill:#ffffff;fill-opacity:1;" d="M 172.691406 126.277344 C 172.691406 128.753906 170.683594 130.761719 168.207031 130.761719 C 165.726562 130.761719 163.71875 128.753906 163.71875 126.277344 C 163.71875 123.800781 165.726562 121.792969 168.207031 121.792969 C 170.683594 121.792969 172.691406 123.800781 172.691406 126.277344 Z M 172.691406 126.277344 "/><path style=" stroke:none;fill-rule:nonzero;fill:#ffffff;fill-opacity:1;" d="M 187.652344 126.277344 C 187.652344 128.753906 185.640625 130.761719 183.164062 130.761719 C 180.6875 130.761719 178.675781 128.753906 178.675781 126.277344 C 178.675781 123.800781 180.6875 121.792969 183.164062 121.792969 C 185.640625 121.792969 187.652344 123.800781 187.652344 126.277344 Z M 187.652344 126.277344 "/><path style=" stroke:none;fill-rule:nonzero;fill:#f4ad5e;fill-opacity:1;" d="M 161.09375 155.933594 C 161.09375 154.703125 162.09375 153.707031 163.324219 153.707031 L 184.515625 153.707031 C 185.746094 153.707031 186.746094 154.703125 186.746094 155.933594 C 186.746094 157.164062 185.746094 158.164062 184.515625 158.164062 L 163.324219 158.164062 C 162.09375 158.164062 161.09375 157.164062 161.09375 155.933594 Z M 161.09375 155.933594 "/><path style=" stroke:none;fill-rule:nonzero;fill:#f4ad5e;fill-opacity:1;" d="M 161.09375 276.285156 C 161.09375 275.054688 162.09375 274.058594 163.324219 274.058594 L 184.515625 274.058594 C 185.746094 274.058594 186.746094 275.054688 186.746094 276.285156 C 186.746094 277.515625 185.746094 278.515625 184.515625 278.515625 L 163.324219 278.515625 C 162.09375 278.515625 161.09375 277.515625 161.09375 276.285156 Z M 161.09375 276.285156 "/><path style=" stroke:none;fill-rule:nonzero;fill:#f4ad5e;fill-opacity:1;" d="M 206.820312 276.285156 C 206.820312 275.054688 207.820312 274.058594 209.050781 274.058594 L 230.242188 274.058594 C 231.472656 274.058594 232.472656 275.054688 232.472656 276.285156 C 232.472656 277.515625 231.472656 278.515625 230.242188 278.515625 L 209.050781 278.515625 C 207.820312 278.515625 206.820312 277.515625 206.820312 276.285156 Z M 206.820312 276.285156 "/><path style=" stroke:none;fill-rule:nonzero;fill:#f4ad5e;fill-opacity:1;" d="M 252.546875 276.285156 C 252.546875 275.054688 253.546875 274.058594 254.777344 274.058594 L 275.96875 274.058594 C 277.199219 274.058594 278.199219 275.054688 278.199219 276.285156 C 278.199219 277.515625 277.199219 278.515625 275.96875 278.515625 L 254.777344 278.515625 C 253.546875 278.515625 252.546875 277.515625 252.546875 276.285156 Z M 252.546875 276.285156 "/><path style=" stroke:none;fill-rule:nonzero;fill:#f4ad5e;fill-opacity:1;" d="M 298.277344 276.285156 C 298.277344 275.054688 299.273438 274.058594 300.507812 274.058594 L 321.695312 274.058594 C 322.929688 274.058594 323.925781 275.054688 323.925781 276.285156 C 323.925781 277.515625 322.929688 278.515625 321.695312 278.515625 L 300.507812 278.515625 C 299.273438 278.515625 298.277344 277.515625 298.277344 276.285156 Z M 298.277344 276.285156 "/><path style=" stroke:none;fill-rule:nonzero;fill:#f4ad5e;fill-opacity:1;" d="M 161.09375 186.484375 C 161.09375 184.996094 162.300781 183.792969 163.789062 183.792969 L 201.488281 183.792969 C 202.976562 183.792969 204.183594 184.996094 204.183594 186.484375 C 204.183594 187.96875 202.976562 189.175781 201.488281 189.175781 L 163.789062 189.175781 C 162.300781 189.175781 161.09375 187.96875 161.09375 186.484375 Z M 161.09375 186.484375 "/><path style=" stroke:none;fill-rule:nonzero;fill:#e7e8ff;fill-opacity:1;" d="M 161.09375 207.113281 C 161.09375 206.121094 161.898438 205.320312 162.890625 205.320312 L 256.246094 205.320312 C 257.238281 205.320312 258.042969 206.121094 258.042969 207.113281 C 258.042969 208.105469 257.238281 208.90625 256.246094 208.90625 L 162.890625 208.90625 C 161.898438 208.90625 161.09375 208.105469 161.09375 207.113281 Z M 161.09375 207.113281 "/><path style=" stroke:none;fill-rule:nonzero;fill:#e7e8ff;fill-opacity:1;" d="M 161.09375 226.847656 C 161.09375 225.855469 161.898438 225.050781 162.890625 225.050781 L 256.246094 225.050781 C 257.238281 225.050781 258.042969 225.855469 258.042969 226.847656 C 258.042969 227.835938 257.238281 228.640625 256.246094 228.640625 L 162.890625 228.640625 C 161.898438 228.640625 161.09375 227.835938 161.09375 226.847656 Z M 161.09375 226.847656 "/><path style=" stroke:none;fill-rule:nonzero;fill:#e7e8ff;fill-opacity:1;" d="M 161.09375 246.578125 C 161.09375 245.585938 161.898438 244.785156 162.890625 244.785156 L 256.246094 244.785156 C 257.238281 244.785156 258.042969 245.585938 258.042969 246.578125 C 258.042969 247.570312 257.238281 248.371094 256.246094 248.371094 L 162.890625 248.371094 C 161.898438 248.371094 161.09375 247.570312 161.09375 246.578125 Z M 161.09375 246.578125 "/><path style=" stroke:none;fill-rule:nonzero;fill:#e7e8ff;fill-opacity:1;" d="M 289.351562 218.296875 C 289.351562 217.089844 290.332031 216.109375 291.539062 216.109375 L 299.429688 216.109375 C 300.636719 216.109375 301.617188 217.089844 301.617188 218.296875 L 301.617188 241.78125 C 301.617188 242.988281 300.636719 243.96875 299.429688 243.96875 L 291.539062 243.96875 C 290.332031 243.96875 289.351562 242.988281 289.351562 241.78125 Z M 289.351562 218.296875 "/><path style=" stroke:none;fill-rule:nonzero;fill:#e7e8ff;fill-opacity:1;" d="M 309.425781 211.613281 C 309.425781 210.402344 310.40625 209.421875 311.617188 209.421875 L 319.503906 209.421875 C 320.714844 209.421875 321.695312 210.402344 321.695312 211.613281 L 321.695312 241.78125 C 321.695312 242.988281 320.714844 243.96875 319.503906 243.96875 L 311.617188 243.96875 C 310.40625 243.96875 309.425781 242.988281 309.425781 241.78125 Z M 309.425781 211.613281 "/><path style=" stroke:none;fill-rule:nonzero;fill:#e7e8ff;fill-opacity:1;" d="M 329.503906 202.699219 C 329.503906 201.488281 330.484375 200.507812 331.695312 200.507812 L 339.582031 200.507812 C 340.792969 200.507812 341.769531 201.488281 341.769531 202.699219 L 341.769531 241.78125 C 341.769531 242.988281 340.792969 243.96875 339.582031 243.96875 L 331.695312 243.96875 C 330.484375 243.96875 329.503906 242.988281 329.503906 241.78125 Z M 329.503906 202.699219 "/><path style=" stroke:none;fill-rule:nonzero;fill:#f4ad5e;fill-opacity:1;" d="M 349.578125 194.898438 C 349.578125 193.6875 350.558594 192.707031 351.765625 192.707031 L 359.65625 192.707031 C 360.863281 192.707031 361.84375 193.6875 361.84375 194.898438 L 361.84375 241.78125 C 361.84375 242.988281 360.863281 243.96875 359.65625 243.96875 L 351.765625 243.96875 C 350.558594 243.96875 349.578125 242.988281 349.578125 241.78125 Z M 349.578125 194.898438 "/><path style=" stroke:none;fill-rule:evenodd;fill:#032068;fill-opacity:1;" d="M 276.546875 251.273438 L 276.546875 190.480469 L 278.738281 190.480469 L 278.738281 251.273438 C 278.738281 252.480469 279.71875 253.460938 280.925781 253.460938 L 371.882812 253.460938 L 371.882812 255.648438 L 280.925781 255.648438 C 278.507812 255.648438 276.546875 253.691406 276.546875 251.273438 Z M 276.546875 251.273438 "/><path style=" stroke:none;fill-rule:evenodd;fill:#032068;fill-opacity:1;" d="M 337.292969 190.699219 C 334.941406 191.042969 333 191.410156 331.628906 192.035156 C 330.265625 192.652344 328.738281 193.871094 327.011719 195.421875 C 326.390625 195.976562 325.734375 196.585938 325.066406 197.210938 C 323.9375 198.261719 322.753906 199.359375 321.570312 200.367188 C 317.832031 203.550781 313.339844 206.496094 308.523438 204.890625 C 305.492188 203.882812 301.25 204.320312 297.011719 205.398438 C 292.824219 206.46875 288.855469 208.109375 286.496094 209.289062 L 285.515625 207.332031 C 287.992188 206.09375 292.109375 204.390625 296.46875 203.28125 C 300.785156 202.179688 305.554688 201.59375 309.214844 202.8125 C 312.765625 203.996094 316.359375 201.925781 320.148438 198.699219 C 321.308594 197.714844 322.410156 196.6875 323.507812 195.667969 C 324.1875 195.035156 324.863281 194.40625 325.546875 193.792969 C 327.269531 192.246094 329.019531 190.816406 330.722656 190.042969 C 332.417969 189.269531 334.65625 188.871094 336.976562 188.535156 C 337.570312 188.449219 338.171875 188.367188 338.777344 188.28125 C 340.605469 188.03125 342.484375 187.773438 344.335938 187.390625 C 349.285156 186.359375 353.511719 184.515625 355.25 180.054688 L 357.289062 180.847656 C 355.125 186.414062 349.871094 188.472656 344.78125 189.53125 C 342.851562 189.933594 340.863281 190.207031 339.019531 190.457031 C 338.429688 190.539062 337.851562 190.621094 337.292969 190.699219 Z M 337.292969 190.699219 "/><path style=" stroke:none;fill-rule:nonzero;fill:#f4ad5e;fill-opacity:1;" d="M 298.273438 203.851562 C 298.273438 205.082031 297.277344 206.082031 296.042969 206.082031 C 294.8125 206.082031 293.8125 205.082031 293.8125 203.851562 C 293.8125 202.621094 294.8125 201.625 296.042969 201.625 C 297.277344 201.625 298.273438 202.621094 298.273438 203.851562 Z M 298.273438 203.851562 "/><path style=" stroke:none;fill-rule:nonzero;fill:#f4ad5e;fill-opacity:1;" d="M 318.351562 202.738281 C 318.351562 203.96875 317.351562 204.964844 316.121094 204.964844 C 314.886719 204.964844 313.890625 203.96875 313.890625 202.738281 C 313.890625 201.507812 314.886719 200.507812 316.121094 200.507812 C 317.351562 200.507812 318.351562 201.507812 318.351562 202.738281 Z M 318.351562 202.738281 "/><path style=" stroke:none;fill-rule:nonzero;fill:#f4ad5e;fill-opacity:1;" d="M 338.425781 189.363281 C 338.425781 190.597656 337.425781 191.59375 336.195312 191.59375 C 334.960938 191.59375 333.964844 190.597656 333.964844 189.363281 C 333.964844 188.132812 334.960938 187.136719 336.195312 187.136719 C 337.425781 187.136719 338.425781 188.132812 338.425781 189.363281 Z M 338.425781 189.363281 "/><path style=" stroke:none;fill-rule:nonzero;fill:#f4ad5e;fill-opacity:1;" d="M 358.5 180.449219 C 358.5 181.679688 357.503906 182.679688 356.269531 182.679688 C 355.039062 182.679688 354.039062 181.679688 354.039062 180.449219 C 354.039062 179.21875 355.039062 178.222656 356.269531 178.222656 C 357.503906 178.222656 358.5 179.21875 358.5 180.449219 Z M 358.5 180.449219 "/><path style=" stroke:none;fill-rule:nonzero;fill:#efcb96;fill-opacity:1;" d="M 136.441406 213.011719 L 138.625 223.359375 L 138.625 229.894531 L 133.714844 234.25 L 118.984375 232.617188 L 118.984375 222.816406 L 119.53125 211.378906 C 113.527344 203.753906 111.347656 189.046875 117.894531 181.421875 C 124.441406 173.796875 141.351562 172.710938 144.625 190.683594 C 147.246094 205.058594 140.261719 211.558594 136.441406 213.011719 Z M 136.441406 213.011719 "/><path style=" stroke:none;fill-rule:nonzero;fill:#032068;fill-opacity:1;" d="M 171.902344 414.523438 L 166.316406 353.523438 L 88.070312 353.523438 L 80.246094 414.523438 Z M 171.902344 414.523438 "/><path style=" stroke:none;fill-rule:nonzero;fill:#efcb96;fill-opacity:1;" d="M 224.277344 239.699219 C 224.277344 241.441406 222.460938 244.417969 221.550781 245.6875 L 222.640625 252.222656 L 230.824219 253.3125 C 233.007812 250.589844 239.554688 249.5 241.191406 245.144531 C 242.5 241.660156 238.828125 237.882812 236.828125 236.976562 L 243.609375 227.496094 C 244.402344 226.390625 244.214844 224.859375 243.179688 223.96875 C 242.078125 223.027344 240.425781 223.152344 239.472656 224.242188 L 230.28125 234.796875 C 230.28125 235.160156 229.953125 235.125 228.644531 232.074219 C 227.007812 228.261719 225.371094 229.894531 224.277344 230.441406 C 223.1875 230.984375 224.277344 237.519531 224.277344 239.699219 Z M 224.277344 239.699219 "/><path style=" stroke:none;fill-rule:nonzero;fill:#ffffff;fill-opacity:1;" d="M 129.894531 228.804688 C 137.316406 228.804688 139.167969 222.996094 139.167969 220.089844 C 144.40625 220.089844 147.835938 222.644531 148.929688 223.371094 L 157.71875 248.414062 L 159.355469 354.070312 C 141.023438 359.734375 117.890625 356.429688 108.617188 354.070312 L 102.617188 223.902344 C 106.222656 221.613281 111.492188 220.613281 115.277344 220.257812 C 117.128906 220.082031 118.722656 221.390625 119.671875 222.992188 C 121.316406 225.769531 124.53125 228.804688 129.894531 228.804688 Z M 129.894531 228.804688 "/><path style=" stroke:none;fill-rule:evenodd;fill:#032068;fill-opacity:1;" d="M 148.082031 224.019531 L 156.707031 248.589844 L 158.332031 353.320312 C 140.839844 358.464844 119.097656 355.558594 109.59375 353.269531 L 103.65625 224.457031 C 107.035156 222.507812 111.800781 221.597656 115.371094 221.261719 C 116.65625 221.144531 117.941406 222.058594 118.800781 223.503906 C 120.574219 226.5 124.078125 229.816406 129.894531 229.816406 C 133.910156 229.816406 136.53125 228.226562 138.121094 226.152344 C 139.367188 224.523438 139.941406 222.648438 140.121094 221.132812 C 144.132812 221.386719 146.871094 223.199219 148.082031 224.019531 Z M 149.269531 222.378906 C 147.964844 221.492188 144.414062 219.082031 139.167969 219.082031 L 138.15625 219.082031 L 138.15625 220.089844 C 138.15625 221.371094 137.742188 223.320312 136.511719 224.921875 C 135.316406 226.480469 133.300781 227.792969 129.894531 227.792969 C 124.984375 227.792969 122.058594 225.039062 120.542969 222.476562 C 119.507812 220.726562 117.601562 219.023438 115.183594 219.25 C 111.359375 219.609375 105.890625 220.625 102.074219 223.050781 L 101.578125 223.363281 L 107.640625 354.863281 L 108.367188 355.050781 C 117.714844 357.429688 141.0625 360.78125 159.65625 355.035156 L 160.378906 354.8125 L 158.730469 248.234375 L 149.773438 222.714844 L 149.492188 222.527344 C 149.425781 222.488281 149.351562 222.4375 149.269531 222.378906 Z M 149.269531 222.378906 "/><path style=" stroke:none;fill-rule:nonzero;fill:#f4ad5e;fill-opacity:1;" d="M 148.992188 276.734375 C 148.226562 263.398438 144.070312 239.378906 141.335938 225.058594 C 140.667969 218.984375 138.378906 218.546875 145.769531 220.667969 C 171.648438 228.09375 177.910156 262.0625 186.089844 262.574219 C 191.910156 262.933594 205.96875 253.234375 215.121094 246.207031 C 217.875 244.09375 221.785156 244.289062 224.238281 246.738281 L 230.089844 252.578125 C 231.882812 254.367188 232.546875 257.007812 231.554688 259.335938 C 224.792969 275.152344 205.789062 300.121094 193.726562 306.140625 C 183.253906 311.371094 174.8125 303.964844 171.90625 299.605469 C 172.085938 313.585938 172.339844 343.394531 171.90625 350.800781 C 171.359375 360.058594 171.90625 367.683594 165.355469 368.773438 C 158.808594 369.863281 146.261719 367.683594 146.261719 365.507812 C 146.261719 363.328125 150.082031 295.792969 148.992188 276.734375 Z M 148.992188 276.734375 "/><path style=" stroke:none;fill-rule:nonzero;fill:#f4ad5e;fill-opacity:1;" d="M 122.804688 276.1875 C 122.402344 266.171875 117.359375 239.125 114.285156 223.824219 C 113.515625 219.996094 113.824219 219.761719 109.789062 220.882812 C 81.511719 228.726562 59.0625 277.03125 61.152344 296.339844 C 62.898438 312.460938 75.703125 337.914062 81.886719 348.625 C 81.523438 355.160156 81.449219 368.449219 84.066406 369.320312 C 87.339844 370.40625 115.710938 369.320312 117.347656 366.050781 C 118.984375 362.785156 123.347656 289.804688 122.804688 276.1875 Z M 122.804688 276.1875 "/><path style=" stroke:none;fill-rule:nonzero;fill:#ffffff;fill-opacity:1;" d="M 116.597656 349.851562 C 120.023438 348.375 121.601562 344.402344 120.121094 340.984375 L 109.375 316.148438 C 107.894531 312.726562 103.917969 311.152344 100.492188 312.628906 L 63.960938 328.382812 C 60.535156 329.863281 58.957031 333.832031 60.4375 337.253906 L 71.183594 362.089844 C 72.664062 365.507812 76.640625 367.085938 80.070312 365.605469 Z M 116.597656 349.851562 "/><path style=" stroke:none;fill-rule:evenodd;fill:#032068;fill-opacity:1;" d="M 117 350.78125 C 120.941406 349.082031 122.753906 344.515625 121.050781 340.582031 L 110.304688 315.746094 C 108.601562 311.8125 104.027344 310.003906 100.089844 311.703125 L 63.558594 327.457031 C 59.617188 329.15625 57.804688 333.722656 59.507812 337.652344 L 70.253906 362.488281 C 71.957031 366.421875 76.53125 368.234375 80.46875 366.535156 Z M 119.191406 341.382812 C 120.449219 344.292969 119.109375 347.667969 116.195312 348.925781 L 79.667969 364.679688 C 76.753906 365.933594 73.371094 364.59375 72.113281 361.6875 L 61.367188 336.851562 C 60.109375 333.945312 61.449219 330.570312 64.363281 329.3125 L 100.890625 313.558594 C 103.804688 312.300781 107.1875 313.640625 108.445312 316.550781 Z M 119.191406 341.382812 "/><path style=" stroke:none;fill-rule:nonzero;fill:#032068;fill-opacity:1;" d="M 63.882812 276.734375 C 67.335938 282.179688 72.609375 297.210938 66.0625 313.765625 C 62.789062 307.59375 57.769531 291.546875 63.882812 276.734375 Z M 63.882812 276.734375 "/><path style=" stroke:none;fill-rule:nonzero;fill:#032068;fill-opacity:1;" d="M 204.09375 297.972656 C 198.820312 296.703125 185.542969 295.902344 174.632812 302.875 C 178.996094 307.777344 191 313.65625 204.09375 297.972656 Z M 204.09375 297.972656 "/><path style=" stroke:none;fill-rule:nonzero;fill:#032068;fill-opacity:1;" d="M 169.175781 269.109375 C 170.269531 278.910156 171.359375 291.4375 171.90625 300.695312 C 174.523438 303.746094 180.996094 306.6875 183.90625 307.777344 C 176.488281 299.496094 172.449219 281.089844 169.175781 269.109375 Z M 169.175781 269.109375 "/><path style=" stroke:none;fill-rule:nonzero;fill:#efcb96;fill-opacity:1;" d="M 106.363281 352.59375 C 105.929688 351.289062 101.453125 346.96875 99.273438 344.96875 C 94.726562 344.425781 85.960938 344.96875 87.269531 351.503906 C 88.90625 359.675781 90.542969 366.210938 99.273438 363.488281 C 106.257812 361.308594 105.457031 356.769531 104.183594 354.773438 C 105.09375 354.59375 106.800781 353.902344 106.363281 352.59375 Z M 106.363281 352.59375 "/><path style=" stroke:none;fill-rule:nonzero;fill:#ffffff;fill-opacity:1;" d="M 127.308594 414.5 L 132.425781 384.910156 L 132.425781 414.5 Z M 127.308594 414.5 "/><path style=" stroke:none;fill-rule:nonzero;fill:#032068;fill-opacity:1;" d="M 120.074219 200.484375 L 119.53125 210.289062 L 119.394531 221.003906 C 119.195312 220.996094 118.582031 220.074219 118.382812 220.070312 C 108.613281 219.839844 100.46875 224.761719 97.617188 227.074219 C 93.796875 211.28125 106.980469 200.484375 106.980469 194.496094 C 106.980469 188.503906 109.710938 169.984375 128.257812 169.441406 C 142.171875 169.03125 145.980469 180.402344 146.253906 188.554688 C 146.28125 189.386719 145.519531 189.996094 144.742188 189.707031 C 141.003906 188.332031 136.230469 184.5 133.386719 181.492188 C 132.597656 180.65625 130.96875 180.921875 130.453125 181.953125 C 129.140625 184.578125 127.21875 187.011719 125.84375 188.671875 C 125.640625 188.914062 125.53125 189.21875 125.527344 189.535156 C 125.496094 191.078125 125.335938 193.171875 125.085938 195.242188 C 124.914062 196.695312 122.890625 196.6875 122.433594 195.300781 C 121.921875 193.738281 121.300781 192.246094 120.621094 191.226562 C 118.4375 187.957031 115.164062 190.683594 115.164062 194.496094 C 115.164062 197.542969 118.4375 199.757812 120.074219 200.484375 Z M 120.074219 200.484375 "/><path style=" stroke:none;fill-rule:nonzero;fill:#032068;fill-opacity:1;" d="M 149.535156 222.269531 C 147.355469 220.089844 144.988281 209.378906 144.078125 204.296875 C 143.207031 208.65625 138.625 211.921875 136.441406 213.011719 L 138.136719 221.003906 L 138.644531 219.488281 C 143.007812 219.488281 147.535156 221.363281 149.535156 222.269531 Z M 149.535156 222.269531 "/><path style=" stroke:none;fill-rule:nonzero;fill:#f4ad5e;fill-opacity:1;" d="M 89.480469 349.976562 L 97.382812 346.867188 C 100.414062 345.675781 102.164062 342.492188 101.546875 339.300781 C 99.84375 330.433594 97.667969 318.789062 96.070312 309.46875 L 68.792969 321.390625 C 71.847656 329.667969 77.703125 341.179688 80.25 345.898438 L 81.535156 347.667969 C 83.347656 350.15625 86.613281 351.105469 89.480469 349.976562 Z M 89.480469 349.976562 "/><path style=" stroke:none;fill-rule:nonzero;fill:#032068;fill-opacity:1;" d="M 93.886719 294.160156 C 93.886719 289.367188 102.433594 275.28125 106.433594 266.929688 C 97.648438 293.015625 97.136719 299.140625 101.226562 337.941406 C 98.667969 325.179688 93.886719 296.449219 93.886719 294.160156 Z M 93.886719 294.160156 "/><path style=" stroke:none;fill-rule:nonzero;fill:#032068;fill-opacity:1;" d="M 127.820312 212.859375 C 131.503906 214.492188 135.152344 213.539062 136.515625 212.859375 L 137.539062 217.964844 C 132.628906 217.964844 129.015625 214.5625 127.820312 212.859375 Z M 127.820312 212.859375 "/><path style=" stroke:none;fill-rule:nonzero;fill:#efcb96;fill-opacity:1;" d="M 401.160156 298.125 L 402.863281 307.050781 L 401.160156 316.398438 C 396.765625 316.964844 387.804688 318.097656 387.125 318.097656 C 386.445312 318.097656 381.453125 313.847656 379.042969 311.726562 L 381.59375 298.125 C 374.449219 295.746094 372.09375 285.234375 371.8125 280.277344 C 370.109375 259.878906 383.722656 257.328125 386.273438 257.328125 C 388.824219 257.328125 404.988281 257.328125 407.113281 274.328125 C 408.816406 287.925781 403.855469 295.859375 401.160156 298.125 Z M 401.160156 298.125 "/><path style=" stroke:none;fill-rule:nonzero;fill:#f4ad5e;fill-opacity:1;" d="M 442.417969 403.519531 L 375.640625 403.519531 L 291 403.09375 C 285.761719 399.683594 284.296875 394.175781 284.28125 389.503906 C 284.269531 385.679688 287.03125 382.601562 290.480469 380.9375 C 304.1875 374.335938 324.992188 364.121094 328.855469 361.445312 C 334.382812 357.621094 339.488281 336.796875 349.695312 320.648438 C 357.863281 307.730469 373.230469 304.785156 379.46875 304.925781 C 380.035156 307.472656 382.445312 312.574219 390.953125 312.574219 C 399.460938 312.574219 403.003906 307.472656 404.140625 304.925781 C 408.535156 304.925781 420.726562 307.304688 430.933594 316.824219 C 443.683594 328.714844 449.214844 355.882812 454.316406 380.945312 L 454.328125 380.996094 C 458.410156 401.054688 448.089844 404.085938 442.417969 403.519531 Z M 442.417969 403.519531 "/><path style=" stroke:none;fill-rule:nonzero;fill:#032068;fill-opacity:1;" d="M 413.921875 370.796875 L 407.542969 344.871094 L 408.816406 370.796875 L 379.765625 377.875 C 376.035156 378.785156 372.546875 381.101562 371.839844 384.875 C 370.582031 391.601562 373.09375 398.753906 376.066406 401.394531 C 373.515625 397.746094 373.515625 383.972656 376.492188 381.84375 C 378.875 380.144531 408.390625 374.621094 422.855469 372.070312 Z M 413.921875 370.796875 "/><path style=" stroke:none;fill-rule:nonzero;fill:#032068;fill-opacity:1;" d="M 350.546875 338.074219 L 334.808594 403.519531 L 328.003906 403.519531 Z M 350.546875 338.074219 "/><path style=" stroke:none;fill-rule:nonzero;fill:#032068;fill-opacity:1;" d="M 396.484375 289.625 C 398.183594 299.484375 400.59375 300.53125 401.585938 299.824219 C 413.496094 292.175781 413.210938 267.734375 405.839844 259.453125 C 399.035156 251.804688 393.929688 254.777344 379.894531 251.378906 C 365.859375 247.976562 361.179688 253.929688 363.734375 261.578125 C 367.40625 272.589844 379.046875 266.675781 382.023438 267.953125 C 385 269.226562 388.828125 272.625 390.527344 279.425781 C 392.230469 286.226562 393.082031 284.953125 394.355469 281.125 C 395.632812 277.300781 399.035156 271.777344 401.585938 278.578125 C 403.628906 284.015625 399.035156 288.210938 396.484375 289.625 Z M 396.484375 289.625 "/><path style=" stroke:none;fill-rule:nonzero;fill:#efcb96;fill-opacity:1;" d="M 346.292969 403.519531 C 346.292969 391.960938 363.449219 388.503906 371.8125 388.21875 C 371.8125 394 375.359375 400.828125 377.34375 403.519531 Z M 346.292969 403.519531 "/><path style=" stroke:none;fill-rule:nonzero;fill:#efcb96;fill-opacity:1;" d="M 263.625 402.738281 C 263.625 392.464844 277.21875 390.28125 284.550781 390.027344 C 284.550781 395.164062 289.105469 400.347656 290.84375 402.738281 Z M 263.625 402.738281 "/><path style=" stroke:none;fill-rule:evenodd;fill:#032068;fill-opacity:1;" d="M 455.238281 388.179688 C 455.441406 396.382812 452.558594 403.519531 443.773438 403.519531 L 436.035156 403.519531 C 438.078125 389.921875 448.878906 381.703125 453.980469 379.296875 C 454.09375 379.847656 454.207031 380.394531 454.316406 380.945312 L 454.328125 380.996094 C 454.871094 383.667969 455.160156 386.054688 455.238281 388.179688 Z M 455.238281 388.179688 "/><path style=" stroke:none;fill-rule:nonzero;fill:#032068;fill-opacity:1;" d="M 389.757812 297.996094 C 385.796875 299.316406 383.054688 298.546875 381.679688 297.996094 L 380.402344 303.945312 C 385.683594 303.285156 388.660156 299.507812 389.757812 297.996094 Z M 389.757812 297.996094 "/><path style=" stroke:none;fill-rule:nonzero;fill:#ffffff;fill-opacity:1;" d="M 307.398438 352.613281 L 326.378906 395.9375 C 327.328125 398.113281 325.746094 400.554688 323.382812 400.554688 L 265.46875 400.554688 C 264.136719 400.554688 262.941406 399.746094 262.4375 398.507812 L 244.84375 355.183594 C 243.964844 353.019531 245.546875 350.652344 247.875 350.652344 L 304.402344 350.652344 C 305.699219 350.652344 306.875 351.421875 307.398438 352.613281 Z M 307.398438 352.613281 "/><path style=" stroke:none;fill-rule:evenodd;fill:#032068;fill-opacity:1;" d="M 304.402344 351.335938 C 305.429688 351.335938 306.359375 351.945312 306.777344 352.890625 L 325.753906 396.214844 C 326.507812 397.9375 325.253906 399.871094 323.378906 399.871094 L 265.46875 399.871094 C 264.414062 399.871094 263.464844 399.230469 263.066406 398.25 L 245.472656 354.925781 C 244.773438 353.210938 246.03125 351.335938 247.871094 351.335938 Z M 308.019531 352.339844 C 307.386719 350.898438 305.96875 349.96875 304.402344 349.96875 L 247.871094 349.96875 C 245.0625 349.96875 243.152344 352.828125 244.210938 355.441406 L 261.808594 398.765625 C 262.414062 400.261719 263.863281 401.238281 265.46875 401.238281 L 323.378906 401.238281 C 326.234375 401.238281 328.148438 398.289062 327 395.664062 Z M 308.019531 352.339844 "/><path style=" stroke:none;fill-rule:nonzero;fill:#f4ad5e;fill-opacity:1;" d="M 289.707031 372.136719 C 288.644531 369.65625 286.214844 368.050781 283.527344 368.050781 C 278.683594 368.050781 275.425781 373.027344 277.34375 377.496094 L 277.820312 378.609375 C 278.886719 381.09375 281.316406 382.699219 284.003906 382.699219 C 288.84375 382.699219 292.101562 377.71875 290.1875 373.25 Z M 289.707031 372.136719 "/><path style=" stroke:none;fill-rule:nonzero;fill:#032068;fill-opacity:1;" d="M 266.378906 404.675781 L 366.886719 404.675781 C 368.523438 404.675781 369.847656 403.34375 369.847656 401.699219 C 369.847656 400.054688 368.523438 398.722656 366.886719 398.722656 L 266.378906 398.722656 C 264.253906 398.722656 262.824219 400.902344 263.652344 402.863281 C 264.117188 403.960938 265.191406 404.675781 266.378906 404.675781 Z M 266.378906 404.675781 "/><path style=" stroke:none;fill-rule:nonzero;fill:#f4ad5e;fill-opacity:1;" d="M 427.046875 161.773438 L 430.585938 158.621094 C 431.21875 158.058594 432.195312 158.636719 432.003906 159.460938 L 430.972656 163.972656 C 430.910156 164.246094 430.980469 164.53125 431.167969 164.738281 L 434.511719 168.519531 C 435.050781 169.125 434.523438 170.078125 433.722656 169.953125 L 428.683594 169.152344 C 428.4375 169.113281 428.1875 169.183594 427.996094 169.34375 L 423.65625 172.921875 C 423.011719 173.453125 422.066406 172.859375 422.269531 172.046875 L 423.535156 166.929688 C 423.597656 166.679688 423.546875 166.414062 423.394531 166.207031 L 420.023438 161.59375 C 419.53125 160.914062 420.199219 159.992188 420.996094 160.253906 L 426.203125 161.949219 C 426.492188 162.046875 426.816406 161.980469 427.046875 161.773438 Z M 427.046875 161.773438 "/><path style=" stroke:none;fill-rule:nonzero;fill:#f4ad5e;fill-opacity:1;" d="M 443.191406 217.863281 L 444.65625 217.433594 C 445.464844 217.199219 446.097656 218.140625 445.574219 218.800781 L 444.65625 219.96875 C 444.480469 220.191406 444.421875 220.480469 444.5 220.75 L 445.011719 222.53125 C 445.234375 223.3125 444.355469 223.949219 443.6875 223.488281 L 442.121094 222.410156 C 441.914062 222.269531 441.660156 222.222656 441.417969 222.285156 L 439.351562 222.804688 C 438.542969 223.007812 437.945312 222.0625 438.472656 221.417969 L 439.691406 219.925781 C 439.851562 219.726562 439.917969 219.464844 439.875 219.214844 L 439.472656 217.089844 C 439.316406 216.261719 440.316406 215.71875 440.921875 216.296875 L 442.351562 217.660156 C 442.574219 217.871094 442.894531 217.949219 443.191406 217.863281 Z M 443.191406 217.863281 "/><path style=" stroke:none;fill-rule:nonzero;fill:#ffffff;fill-opacity:1;" d="M 77.464844 406.863281 C 77.464844 405.050781 78.617188 403.582031 80.035156 403.582031 L 436.265625 403.582031 C 437.683594 403.582031 438.835938 405.050781 438.835938 406.863281 L 438.835938 411.242188 C 438.835938 413.054688 437.683594 414.523438 436.265625 414.523438 L 80.035156 414.523438 C 78.617188 414.523438 77.464844 413.054688 77.464844 411.242188 Z M 77.464844 406.863281 "/><g clip-rule="nonzero" clip-path="url(#c4e7930604)"><path style=" stroke:none;fill-rule:evenodd;fill:#032068;fill-opacity:1;" d="M 76.609375 406.863281 C 76.609375 404.445312 78.144531 402.488281 80.035156 402.488281 L 436.265625 402.488281 C 438.15625 402.488281 439.691406 404.445312 439.691406 406.863281 L 439.691406 411.242188 C 439.691406 413.65625 438.15625 415.617188 436.265625 415.617188 L 80.035156 415.617188 C 78.144531 415.617188 76.609375 413.65625 76.609375 411.242188 Z M 80.035156 404.675781 C 79.089844 404.675781 78.320312 405.65625 78.320312 406.863281 L 78.320312 411.242188 C 78.320312 412.449219 79.089844 413.429688 80.035156 413.429688 L 436.265625 413.429688 C 437.210938 413.429688 437.976562 412.449219 437.976562 411.242188 L 437.976562 406.863281 C 437.976562 405.65625 437.210938 404.675781 436.265625 404.675781 Z M 80.035156 404.675781 "/></g></g></svg>